<?xml version="1.0" encoding="utf-8"?><!-- Uploaded to: SVG Repo, www.svgrepo.com, Generator: SVG Repo Mixer Tools -->
<svg fill="#000000" width="4000px" height="686px"
     viewBox="0 0 140 24" role="img" xmlns="http://www.w3.org/2000/svg">

    <!-- slot 0 (x=0..24): Gitee -->
    <path d="M11.984 0A12 12 0 0 0 0 12a12 12 0 0 0 12 12 12 12 0 0 0 12-12A12 12 0 0 0 12 0a12 12 0 0 0-.016 0zm6.09 5.333c.328 0 .593.266.592.593v1.482a.594.594 0 0 1-.593.592H9.777c-.982 0-1.778.796-1.778 1.778v5.63c0 .327.266.592.593.592h5.63c.982 0 1.778-.796 1.778-1.778v-.296a.593.593 0 0 0-.592-.593h-4.15a.592.592 0 0 1-.592-.592v-1.482a.593.593 0 0 1 .593-.592h6.815c.327 0 .593.265.593.592v3.408a4 4 0 0 1-4 4H5.926a.593.593 0 0 1-.593-.593V9.778a4.444 4.444 0 0 1 4.445-4.444h8.296z"
    />

    <!-- slot 1 (x=28..52): GitLab — source viewBox 256×256, scaled ×0.09375 to fit 24×24 -->
    <path
            d="M231.92773,169.78029l-94.82031,65.64454a16.07612,16.07612,0,0,1-18.21484,0L24.07227,169.78029a16.03981,16.03981,0,0,1-6.35254-17.27783L45.04883,50.0176a12.00012,12.00012,0,0,1,22.831-1.12109L88.544,104h78.9121l20.66407-55.10449a12.00021,12.00021,0,0,1,22.83056,1.12109l27.32959,102.48584A16.03981,16.03981,0,0,1,231.92773,169.78029Z"
            transform="translate(28, -3) scale(0.11)"
    />1

    <!-- slot 2 (x=56..80): Bitbucket logo -->
    <path fill-rule="evenodd"
          d="M4.74905 5C4.15046 5 3.68596 5.52235 3.7559 6.11684L5.28531 19.1168C5.34456 19.6205 5.77138 20 6.27846 20H17.7256C18.2318 20 18.6582 19.6217 18.7185 19.1191L19.8128 10H18.5H17.2346C16.7369 10 16.315 10.3659 16.2446 10.8586L15.4899 16.1414C15.4195 16.6341 14.9976 17 14.5 17H9.49997C9.00232 17 8.58039 16.6341 8.51002 16.1414L7.51002 9.14142C7.46902 8.85444 7.55457 8.5638 7.74451 8.3448C7.93445 8.1258 8.21007 8 8.49997 8H17.2346H18.498H18.5L20.0455 7.99366L20.2567 6.11152C20.3232 5.51879 19.8594 5 19.263 5H4.74905ZM21.6444 9.19533C21.8531 8.91801 21.9919 8.58354 22.033 8.21671L22.2442 6.33457C22.4438 4.55638 21.0523 3 19.263 3H4.74905C2.95327 3 1.55978 4.56704 1.7696 6.35052L3.29901 19.3505C3.47676 20.8614 4.75721 22 6.27846 22H17.7256C19.2442 22 20.5233 20.8652 20.7042 19.3574L21.7985 10.2383C21.843 9.86771 21.7836 9.51096 21.6444 9.19533ZM14.4057 10H9.65298L10.3673 15H13.6327L14.2647 10.5757C14.2932 10.3763 14.3409 10.1838 14.4057 10Z" fill="#000000"
          transform="translate(56, 0)"
    />

    <!-- slot 3 (x=84..108): Gitea -->
    <path d="M4.209 4.603c-.247 0-.525.02-.84.088-.333.07-1.28.283-2.054 1.027C-.403 7.25.035 9.685.089 10.052c.065.446.263 1.687 1.21 2.768 1.749 2.141 5.513 2.092 5.513 2.092s.462 1.103 1.168 2.119c.955 1.263 1.936 2.248 2.89 2.367 2.406 0 7.212-.004 7.212-.004s.458.004 1.08-.394c.535-.324 1.013-.893 1.013-.893s.492-.527 1.18-1.73c.21-.37.385-.729.538-1.068 0 0 2.107-4.471 2.107-8.823-.042-1.318-.367-1.55-.443-1.627-.156-.156-.366-.153-.366-.153s-4.475.252-6.792.306c-.508.011-1.012.023-1.512.027v4.474l-.634-.301c0-1.39-.004-4.17-.004-4.17-1.107.016-3.405-.084-3.405-.084s-5.399-.27-5.987-.324c-.187-.011-.401-.032-.648-.032zm.354 1.832h.111s.271 2.269.6 3.597C5.549 11.147 6.22 13 6.22 13s-.996-.119-1.641-.348c-.99-.324-1.409-.714-1.409-.714s-.73-.511-1.096-1.52C1.444 8.73 2.021 7.7 2.021 7.7s.32-.859 1.47-1.145c.395-.106.863-.12 1.072-.12zm8.33 2.554c.26.003.509.127.509.127l.868.422-.529 1.075a.686.686 0 0 0-.614.359.685.685 0 0 0 .072.756l-.939 1.924a.69.69 0 0 0-.66.527.687.687 0 0 0 .347.763.686.686 0 0 0 .867-.206.688.688 0 0 0-.069-.882l.916-1.874a.667.667 0 0 0 .237-.02.657.657 0 0 0 .271-.137 8.826 8.826 0 0 1 1.016.512.761.761 0 0 1 .286.282c.073.21-.073.569-.073.569-.087.29-.702 1.55-.702 1.55a.692.692 0 0 0-.676.477.681.681 0 1 0 1.157-.252c.073-.141.141-.282.214-.431.19-.397.515-1.16.515-1.16.035-.066.218-.394.103-.814-.095-.435-.48-.638-.48-.638-.467-.301-1.116-.58-1.116-.58s0-.156-.042-.27a.688.688 0 0 0-.148-.241l.516-1.062 2.89 1.401s.48.218.583.619c.073.282-.019.534-.069.657-.24.587-2.1 4.317-2.1 4.317s-.232.554-.748.588a1.065 1.065 0 0 1-.393-.045l-.202-.08-4.31-2.1s-.417-.218-.49-.596c-.083-.31.104-.691.104-.691l2.073-4.272s.183-.37.466-.497a.855.855 0 0 1 .35-.077z"
          transform="translate(84, 0)"/>

    <!-- slot 4 (x=112..136): GitHub -->
    <path clip-rule="evenodd" d="M12 2C6.475 2 2 6.475 2 12C2 16.425 4.8625 20.1625 8.8375 21.4875C9.3375 21.575 9.525 21.275 9.525 21.0125C9.525 20.775 9.5125 19.9875 9.5125 19.15C7 19.6125 6.35 18.5375 6.15 17.975C6.0375 17.6875 5.55 16.8 5.125 16.5625C4.775 16.375 4.275 15.9125 5.1125 15.9C5.9 15.8875 6.4625 16.625 6.65 16.925C7.55 18.4375 8.9875 18.0125 9.5625 17.75C9.65 17.1 9.9125 16.6625 10.2 16.4125C7.975 16.1625 5.65 15.3 5.65 11.475C5.65 10.3875 6.0375 9.4875 6.675 8.7875C6.575 8.5375 6.225 7.5125 6.775 6.1375C6.775 6.1375 7.6125 5.875 9.525 7.1625C10.325 6.9375 11.175 6.825 12.025 6.825C12.875 6.825 13.725 6.9375 14.525 7.1625C16.4375 5.8625 17.275 6.1375 17.275 6.1375C17.825 7.5125 17.475 8.5375 17.375 8.7875C18.0125 9.4875 18.4 10.375 18.4 11.475C18.4 15.3125 16.0625 16.1625 13.8375 16.4125C14.2 16.725 14.5125 17.325 14.5125 18.2625C14.5125 19.6 14.5 20.675 14.5 21.0125C14.5 21.275 14.6875 21.5875 15.1875 21.4875C17.1727 20.8173 18.8977 19.5415 20.1198 17.8395C21.3419 16.1376 21.9995 14.0953 22 12C22 6.475 17.525 2 12 2Z"
          stroke="#000000" stroke-linejoin="round"
          transform="translate(112, 0)"
    />

</svg>