<?xml version="1.0" encoding="utf-8"?>
<svg fill="#000000" width="12000px" height="7000px"
     viewBox="0 0 140 150" role="img" xmlns="http://www.w3.org/2000/svg">

    <!-- ═══════════════════════════════════════════════════════════
         DEFINITIONS — shapes only, no positioning
         ═══════════════════════════════════════════════════════════ -->
    <defs>

        <symbol id="sym-gitee" viewBox="0 0 24 24">
            <path d="M11.984 0A12 12 0 0 0 0 12a12 12 0 0 0 12 12 12 12 0 0 0 12-12A12 12 0 0 0 12 0a12 12 0 0 0-.016 0zm6.09 5.333c.328 0 .593.266.592.593v1.482a.594.594 0 0 1-.593.592H9.777c-.982 0-1.778.796-1.778 1.778v5.63c0 .327.266.592.593.592h5.63c.982 0 1.778-.796 1.778-1.778v-.296a.593.593 0 0 0-.592-.593h-4.15a.592.592 0 0 1-.592-.592v-1.482a.593.593 0 0 1 .593-.592h6.815c.327 0 .593.265.593.592v3.408a4 4 0 0 1-4 4H5.926a.593.593 0 0 1-.593-.593V9.778a4.444 4.444 0 0 1 4.445-4.444h8.296z"/>
        </symbol>

        <!-- GitLab source viewBox 256×256 -->
        <symbol id="sym-gitlab" viewBox="0 0 256 256">
            <path transform="scale(1.1) translate(0, -20)"
                    d="M231.92773,169.78029l-94.82031,65.64454a16.07612,16.07612,0,0,1-18.21484,0L24.07227,169.78029a16.03981,16.03981,0,0,1-6.35254-17.27783L45.04883,50.0176a12.00012,12.00012,0,0,1,22.831-1.12109L88.544,104h78.9121l20.66407-55.10449a12.00021,12.00021,0,0,1,22.83056,1.12109l27.32959,102.48584A16.03981,16.03981,0,0,1,231.92773,169.78029Z"/>
        </symbol>

        <!-- Bitbucket source viewBox 500×500 -->
        <symbol id="sym-bitbucket" viewBox="0 0 500 500">
            <path transform="scale(0.92)"
                    d="M483.13,32.23a19.65,19.65,0,0,0-2.54-.23h-449C23,31.88,16.12,38.88,16,47.75a11.44,11.44,0,0,0,.23,2.8L81.53,461.8a22.52,22.52,0,0,0,7,12.95h0A20,20,0,0,0,102,480H415.18a15.45,15.45,0,0,0,15.34-13.42L469.4,218.67H325.19l-18.46,112H205.21l-25.73-148H475.06l20.76-132C497.09,41.92,491.44,33.63,483.13,32.23Z"/>
        </symbol>

        <symbol id="sym-gitea" viewBox="0 0 24 24">
            <path transform="scale(1)"
                    d="M4.209 4.603c-.247 0-.525.02-.84.088-.333.07-1.28.283-2.054 1.027C-.403 7.25.035 9.685.089 10.052c.065.446.263 1.687 1.21 2.768 1.749 2.141 5.513 2.092 5.513 2.092s.462 1.103 1.168 2.119c.955 1.263 1.936 2.248 2.89 2.367 2.406 0 7.212-.004 7.212-.004s.458.004 1.08-.394c.535-.324 1.013-.893 1.013-.893s.492-.527 1.18-1.73c.21-.37.385-.729.538-1.068 0 0 2.107-4.471 2.107-8.823-.042-1.318-.367-1.55-.443-1.627-.156-.156-.366-.153-.366-.153s-4.475.252-6.792.306c-.508.011-1.012.023-1.512.027v4.474l-.634-.301c0-1.39-.004-4.17-.004-4.17-1.107.016-3.405-.084-3.405-.084s-5.399-.27-5.987-.324c-.187-.011-.401-.032-.648-.032zm.354 1.832h.111s.271 2.269.6 3.597C5.549 11.147 6.22 13 6.22 13s-.996-.119-1.641-.348c-.99-.324-1.409-.714-1.409-.714s-.73-.511-1.096-1.52C1.444 8.73 2.021 7.7 2.021 7.7s.32-.859 1.47-1.145c.395-.106.863-.12 1.072-.12zm8.33 2.554c.26.003.509.127.509.127l.868.422-.529 1.075a.686.686 0 0 0-.614.359.685.685 0 0 0 .072.756l-.939 1.924a.69.69 0 0 0-.66.527.687.687 0 0 0 .347.763.686.686 0 0 0 .867-.206.688.688 0 0 0-.069-.882l.916-1.874a.667.667 0 0 0 .237-.02.657.657 0 0 0 .271-.137 8.826 8.826 0 0 1 1.016.512.761.761 0 0 1 .286.282c.073.21-.073.569-.073.569-.087.29-.702 1.55-.702 1.55a.692.692 0 0 0-.676.477.681.681 0 1 0 1.157-.252c.073-.141.141-.282.214-.431.19-.397.515-1.16.515-1.16.035-.066.218-.394.103-.814-.095-.435-.48-.638-.48-.638-.467-.301-1.116-.58-1.116-.58s0-.156-.042-.27a.688.688 0 0 0-.148-.241l.516-1.062 2.89 1.401s.48.218.583.619c.073.282-.019.534-.069.657-.24.587-2.1 4.317-2.1 4.317s-.232.554-.748.588a1.065 1.065 0 0 1-.393-.045l-.202-.08-4.31-2.1s-.417-.218-.49-.596c-.083-.31.104-.691.104-.691l2.073-4.272s.183-.37.466-.497a.855.855 0 0 1 .35-.077z"/>
        </symbol>

        <symbol id="sym-github" viewBox="0 0 24 24">
            <path clip-rule="evenodd" stroke="#000000" stroke-linejoin="round"
                  d="M12 2C6.475 2 2 6.475 2 12C2 16.425 4.8625 20.1625 8.8375 21.4875C9.3375 21.575 9.525 21.275 9.525 21.0125C9.525 20.775 9.5125 19.9875 9.5125 19.15C7 19.6125 6.35 18.5375 6.15 17.975C6.0375 17.6875 5.55 16.8 5.125 16.5625C4.775 16.375 4.275 15.9125 5.1125 15.9C5.9 15.8875 6.4625 16.625 6.65 16.925C7.55 18.4375 8.9875 18.0125 9.5625 17.75C9.65 17.1 9.9125 16.6625 10.2 16.4125C7.975 16.1625 5.65 15.3 5.65 11.475C5.65 10.3875 6.0375 9.4875 6.675 8.7875C6.575 8.5375 6.225 7.5125 6.775 6.1375C6.775 6.1375 7.6125 5.875 9.525 7.1625C10.325 6.9375 11.175 6.825 12.025 6.825C12.875 6.825 13.725 6.9375 14.525 7.1625C16.4375 5.8625 17.275 6.1375 17.275 6.1375C17.825 7.5125 17.475 8.5375 17.375 8.7875C18.0125 9.4875 18.4 10.375 18.4 11.475C18.4 15.3125 16.0625 16.1625 13.8375 16.4125C14.2 16.725 14.5125 17.325 14.5125 18.2625C14.5125 19.6 14.5 20.675 14.5 21.0125C14.5 21.275 14.6875 21.5875 15.1875 21.4875C17.1727 20.8173 18.8977 19.5415 20.1198 17.8395C21.3419 16.1376 21.9995 14.0953 22 12C22 6.475 17.525 2 12 2Z"/>
        </symbol>

        <!-- Refresh / circular arrow — source coords ~0..100 -->
        <symbol id="sym-refresh" viewBox="0 0 100 100">
            <g stroke="#000000" stroke-width="13" fill="none"
               stroke-linecap="round" stroke-linejoin="miter">
                <path d="M 43.1 10.6 A 40 40 0 1 0 78.3 21.7 L 50 50"/>
                <path d="M 35.9 35.9 A 20 20 0 0 0 64.1 64.1"/>
            </g>
        </symbol>

        <symbol id="sym-git-branch" viewBox="0 0 24 24">
            <path fill-rule="evenodd" clip-rule="evenodd" fill="#000000"
                  d="M15.7072 3.70711C16.0977 3.31658 16.0977 2.68342 15.7072 2.29289C15.3166 1.90237 14.6835 1.90237 14.2929 2.29289L11.3379 5.24797C10.9225 5.6633 10.9225 6.33669 11.3379 6.75203L14.2929 9.70711C14.6835 10.0976 15.3166 10.0976 15.7072 9.70711C16.0977 9.31658 16.0977 8.68342 15.7072 8.29289L14.4513 7.03702C14.7113 7.05171 14.9454 7.07224 15.1586 7.10092C15.8647 7.19584 16.1917 7.36322 16.4143 7.58579C16.6368 7.80836 16.8042 8.13538 16.8991 8.84143C16.9979 9.57625 17.0001 10.5575 17.0001 12V14.126C15.2748 14.5701 14.0001 16.1362 14.0001 18C14.0001 20.2091 15.7909 22 18.0001 22C20.2092 22 22.0001 20.2091 22.0001 18C22.0001 16.1362 20.7253 14.5701 19.0001 14.126L19.0001 11.9294C19.0001 10.5753 19.0001 9.45869 18.8813 8.57494C18.7566 7.64711 18.4846 6.82768 17.8285 6.17157C17.1724 5.51546 16.3529 5.2435 15.4251 5.11875C15.1078 5.0761 14.7605 5.04876 14.383 5.03124L15.7072 3.70711Z"/>
            <path fill-rule="evenodd" clip-rule="evenodd" fill="#000000"
                  d="M7 9.87398C8.72523 9.42994 10 7.86384 10 6C10 3.79086 8.20914 2 6 2C3.79086 2 2 3.79086 2 6C2 7.86384 3.27477 9.42994 5 9.87398V14.126C3.27477 14.5701 2 16.1362 2 18C2 20.2091 3.79086 22 6 22C8.20914 22 10 20.2091 10 18C10 16.1362 8.72523 14.5701 7 14.126V9.87398Z"/>
        </symbol>

    </defs>

    <!-- ═══════════════════════════════════════════════════════════
         DRAWING — placement only, no shape data
         ═══════════════════════════════════════════════════════════ -->

    <use id="icon-gitee"      href="#sym-gitee"      x="0"   y="0"   width="25"  height="25"/>
    <use id="icon-gitlab"     href="#sym-gitlab"     x="25"  y="0"  width="25"  height="25"/>
    <use id="icon-bitbucket"  href="#sym-bitbucket"  x="53"  y="0"   width="25"  height="25"/>
    <use id="icon-gitea"      href="#sym-gitea"      x="80"  y="0"   width="25"  height="25"/>
    <use id="icon-github"     href="#sym-github"     x="111" y="0"   width="25"  height="25"/>
    <use id="icon-refresh"    href="#sym-refresh"    x="138" y="0"   width="25"  height="25"/>
    <use id="icon-git-branch" href="#sym-git-branch" x="165" y="0"   width="25"  height="25"/>


    <!-- ####################### Second row ################## -->

    <use id="icon-gitee"      href="#sym-gitlab"       x="0"   y="25"   width="25"  height="25"/>
    <use id="icon-gitlab"     href="#sym-bitbucket"     x="25"  y="25"  width="25"  height="25"/>
    <use id="icon-bitbucket"  href="#sym-gitea"        x="53"  y="25"   width="25"  height="25"/>
    <use id="icon-gitea"      href="#sym-github"       x="80"  y="25"   width="25"  height="25"/>
    <use id="icon-github"     href="#sym-refresh"      x="111" y="25"   width="25"  height="25"/>
    <use id="icon-refresh"    href="#sym-git-branch"    x="138" y="25"   width="25"  height="25"/>
    <use id="icon-git-branch" href="#sym-gitee" x="165" y="25"   width="25"  height="25"/>

    <!-- ####################### 3 row ################## -->

    <!-- slot 0 (x≈3): Gitee -->
    <use id="icon-gitee"      href="#sym-bitbucket"       x="0"   y="50"   width="25"  height="25"/>
    <use id="icon-gitlab"     href="#sym-gitea"     x="25"  y="50"  width="25"  height="25"/>
    <use id="icon-bitbucket"  href="#sym-github"        x="53"  y="50"   width="25"  height="25"/>
    <use id="icon-gitea"      href="#sym-refresh"       x="80"  y="50"   width="25"  height="25"/>
    <use id="icon-github"     href="#sym-git-branch"      x="111" y="50"   width="25"  height="25"/>
    <use id="icon-refresh"    href="#sym-gitee"    x="138" y="50"   width="25"  height="25"/>
    <use id="icon-git-branch" href="#sym-gitlab"         x="165" y="50"   width="25"  height="25"/>

    <!-- ####################### 4 row ################## -->

    <use id="icon-gitee"      href="#sym-gitea"          x="0"   y="75"   width="25"  height="25"/>
    <use id="icon-gitlab"     href="#sym-github"         x="25"  y="75"   width="25"  height="25"/>
    <use id="icon-bitbucket"  href="#sym-refresh"        x="53"  y="75"   width="25"  height="25"/>
    <use id="icon-gitea"      href="#sym-git-branch"     x="80"  y="75"   width="25"  height="25"/>
    <use id="icon-github"     href="#sym-gitee"          x="111" y="75"   width="25"  height="25"/>
    <use id="icon-refresh"    href="#sym-gitlab"         x="138" y="75"   width="25"  height="25"/>
    <use id="icon-git-branch" href="#sym-bitbucket"      x="165" y="75"   width="25"  height="25"/>

    <!-- ####################### 5 row ################## -->

    <use id="icon-gitee"      href="#sym-github"         x="0"   y="100"  width="25"  height="25"/>
    <use id="icon-gitlab"     href="#sym-refresh"        x="25"  y="100"  width="25"  height="25"/>
    <use id="icon-bitbucket"  href="#sym-git-branch"     x="53"  y="100"  width="25"  height="25"/>
    <use id="icon-gitea"      href="#sym-gitee"          x="80"  y="100"  width="25"  height="25"/>
    <use id="icon-github"     href="#sym-gitlab"         x="111" y="100"  width="25"  height="25"/>
    <use id="icon-refresh"    href="#sym-bitbucket"      x="138" y="100"  width="25"  height="25"/>
    <use id="icon-git-branch" href="#sym-gitea"          x="165" y="100"  width="25"  height="25"/>

    <!-- ####################### 6 row ################## -->

    <use id="icon-gitee"      href="#sym-refresh"        x="0"   y="125"  width="25"  height="25"/>
    <use id="icon-gitlab"     href="#sym-git-branch"     x="25"  y="125"  width="25"  height="25"/>
    <use id="icon-bitbucket"  href="#sym-gitee"          x="53"  y="125"  width="25"  height="25"/>
    <use id="icon-gitea"      href="#sym-gitlab"         x="80"  y="125"  width="25"  height="25"/>
    <use id="icon-github"     href="#sym-bitbucket"      x="111" y="125"  width="25"  height="25"/>
    <use id="icon-refresh"    href="#sym-gitea"          x="138" y="125"  width="25"  height="25"/>
    <use id="icon-git-branch" href="#sym-github"         x="165" y="125"  width="25"  height="25"/>


</svg>
