<?xml version="1.0" encoding="utf-8"?><!-- Uploaded to: SVG Repo, www.svgrepo.com, Generator: SVG Repo Mixer Tools -->
<svg width="800px" height="800px" viewBox="0 0 24 24" fill="none" xmlns="http://www.w3.org/2000/svg">
<rect width="24" height="24" fill="white"/>
<path fill-rule="evenodd" clip-rule="evenodd" d="M15.7072 3.70711C16.0977 3.31658 16.0977 2.68342 15.7072 2.29289C15.3166 1.90237 14.6835 1.90237 14.2929 2.29289L11.3379 5.24797C10.9225 5.6633 10.9225 6.33669 11.3379 6.75203L14.2929 9.70711C14.6835 10.0976 15.3166 10.0976 15.7072 9.70711C16.0977 9.31658 16.0977 8.68342 15.7072 8.29289L14.4513 7.03702C14.7113 7.05171 14.9454 7.07224 15.1586 7.10092C15.8647 7.19584 16.1917 7.36322 16.4143 7.58579C16.6368 7.80836 16.8042 8.13538 16.8991 8.84143C16.9979 9.57625 17.0001 10.5575 17.0001 12V14.126C15.2748 14.5701 14.0001 16.1362 14.0001 18C14.0001 20.2091 15.7909 22 18.0001 22C20.2092 22 22.0001 20.2091 22.0001 18C22.0001 16.1362 20.7253 14.5701 19.0001 14.126L19.0001 11.9294C19.0001 10.5753 19.0001 9.45869 18.8813 8.57494C18.7566 7.64711 18.4846 6.82768 17.8285 6.17157C17.1724 5.51546 16.3529 5.2435 15.4251 5.11875C15.1078 5.0761 14.7605 5.04876 14.383 5.03124L15.7072 3.70711Z" fill="#323232"/>
<path fill-rule="evenodd" clip-rule="evenodd" d="M7 9.87398C8.72523 9.42994 10 7.86384 10 6C10 3.79086 8.20914 2 6 2C3.79086 2 2 3.79086 2 6C2 7.86384 3.27477 9.42994 5 9.87398V14.126C3.27477 14.5701 2 16.1362 2 18C2 20.2091 3.79086 22 6 22C8.20914 22 10 20.2091 10 18C10 16.1362 8.72523 14.5701 7 14.126V9.87398Z" fill="#323232"/>
</svg>